<?xml version="1.0" encoding="utf-8" standalone="no"?>
<!DOCTYPE svg PUBLIC "-//W3C//DTD SVG 1.1//EN"
  "http://www.w3.org/Graphics/SVG/1.1/DTD/svg11.dtd">
<svg xmlns:xlink="http://www.w3.org/1999/xlink" width="1152pt" height="648pt" viewBox="0 0 1152 648" xmlns="http://www.w3.org/2000/svg" version="1.1">
 <metadata>
  <rdf:RDF xmlns:dc="http://purl.org/dc/elements/1.1/" xmlns:cc="http://creativecommons.org/ns#" xmlns:rdf="http://www.w3.org/1999/02/22-rdf-syntax-ns#">
   <cc:Work>
    <dc:type rdf:resource="http://purl.org/dc/dcmitype/StillImage"/>
    <dc:date>2026-09-05T12:51:09.527567</dc:date>
    <dc:format>image/svg+xml</dc:format>
    <dc:creator>
     <cc:Agent>
      <dc:title>Matplotlib v3.10.8, https://matplotlib.org/</dc:title>
     </cc:Agent>
    </dc:creator>
   </cc:Work>
  </rdf:RDF>
 </metadata>
 <defs>
  <style type="text/css">*{stroke-linejoin: round; stroke-linecap: butt}</style>
 </defs>
 <g id="figure_1">
  <g id="patch_1">
   <path d="M 0 648 
L 1152 648 
L 1152 0 
L 0 0 
z
" style="fill: #fafbf8"/>
  </g>
  <g id="axes_1">
   <g id="patch_2">
    <path d="M 103.68 518.4 
L 1071.36 518.4 
L 1071.36 155.52 
L 103.68 155.52 
z
" style="fill: #fafbf8"/>
   </g>
   <g id="PathCollection_1">
    <defs>
     <path id="m94c9e9fc1e" d="M 0 5 
C 1.326016 5 2.597899 4.473168 3.535534 3.535534 
C 4.473168 2.597899 5 1.326016 5 0 
C 5 -1.326016 4.473168 -2.597899 3.535534 -3.535534 
C 2.597899 -4.473168 1.326016 -5 0 -5 
C -1.326016 -5 -2.597899 -4.473168 -3.535534 -3.535534 
C -4.473168 -2.597899 -5 -1.326016 -5 0 
C -5 1.326016 -4.473168 2.597899 -3.535534 3.535534 
C -2.597899 4.473168 -1.326016 5 0 5 
z
" style="stroke: #142e38"/>
    </defs>
    <g clip-path="url(#p93888fc124)">
     <use xlink:href="#m94c9e9fc1e" x="440.901818" y="346.032" style="fill: #142e38; stroke: #142e38"/>
    </g>
   </g>
   <g id="matplotlib.axis_1">
    <g id="xtick_1">
     <g id="line2d_1">
      <path d="M 147.665455 518.4 
L 147.665455 155.52 
" clip-path="url(#p93888fc124)" style="fill: none; stroke: #b0b0b0; stroke-opacity: 0.16; stroke-width: 0.8; stroke-linecap: square"/>
     </g>
     <g id="line2d_2">
      <defs>
       <path id="mf03d2a70a8" d="M 0 0 
L 0 3.5 
" style="stroke: #000000; stroke-width: 0.8"/>
      </defs>
      <g>
       <use xlink:href="#mf03d2a70a8" x="147.665455" y="518.4" style="stroke: #000000; stroke-width: 0.8"/>
      </g>
     </g>
     <g id="text_1">
      <!-- 0.0 -->
      <g transform="translate(135.122486 539.825156) scale(0.19 -0.19)">
       <defs>
        <path id="MalgunGothic-30" d="M 278 2206 
Q 278 3425 675 4050 
Q 1072 4675 1819 4675 
Q 3253 4675 3253 2319 
Q 3253 1156 2854 539 
Q 2456 -78 1716 -78 
Q 1016 -78 647 520 
Q 278 1119 278 2206 
z
M 784 2231 
Q 784 344 1769 344 
Q 2747 344 2747 2259 
Q 2747 4250 1794 4250 
Q 784 4250 784 2231 
z
" transform="scale(0.015625)"/>
        <path id="MalgunGothic-2e" d="M 356 275 
Q 356 422 459 523 
Q 563 625 700 625 
Q 838 625 941 523 
Q 1044 422 1044 275 
Q 1044 138 942 33 
Q 841 -72 700 -72 
Q 559 -72 457 29 
Q 356 131 356 275 
z
" transform="scale(0.015625)"/>
       </defs>
       <use xlink:href="#MalgunGothic-30"/>
       <use xlink:href="#MalgunGothic-2e" transform="translate(55.078125 0)"/>
       <use xlink:href="#MalgunGothic-30" transform="translate(76.953125 0)"/>
      </g>
     </g>
    </g>
    <g id="xtick_2">
     <g id="line2d_3">
      <path d="M 294.283636 518.4 
L 294.283636 155.52 
" clip-path="url(#p93888fc124)" style="fill: none; stroke: #b0b0b0; stroke-opacity: 0.16; stroke-width: 0.8; stroke-linecap: square"/>
     </g>
     <g id="line2d_4">
      <g>
       <use xlink:href="#mf03d2a70a8" x="294.283636" y="518.4" style="stroke: #000000; stroke-width: 0.8"/>
      </g>
     </g>
     <g id="text_2">
      <!-- 0.5 -->
      <g transform="translate(281.740668 539.825156) scale(0.19 -0.19)">
       <defs>
        <path id="MalgunGothic-35" d="M 3072 1403 
Q 3072 722 2636 322 
Q 2200 -78 1469 -78 
Q 828 -78 516 113 
L 516 650 
Q 994 344 1475 344 
Q 1969 344 2270 630 
Q 2572 916 2572 1372 
Q 2572 1838 2265 2092 
Q 1959 2347 1381 2347 
Q 994 2347 603 2300 
L 759 4600 
L 2869 4600 
L 2869 4147 
L 1206 4147 
L 1106 2763 
Q 1347 2784 1547 2784 
Q 2263 2784 2667 2414 
Q 3072 2044 3072 1403 
z
" transform="scale(0.015625)"/>
       </defs>
       <use xlink:href="#MalgunGothic-30"/>
       <use xlink:href="#MalgunGothic-2e" transform="translate(55.078125 0)"/>
       <use xlink:href="#MalgunGothic-35" transform="translate(76.953125 0)"/>
      </g>
     </g>
    </g>
    <g id="xtick_3">
     <g id="line2d_5">
      <path d="M 440.901818 518.4 
L 440.901818 155.52 
" clip-path="url(#p93888fc124)" style="fill: none; stroke: #b0b0b0; stroke-opacity: 0.16; stroke-width: 0.8; stroke-linecap: square"/>
     </g>
     <g id="line2d_6">
      <g>
       <use xlink:href="#mf03d2a70a8" x="440.901818" y="518.4" style="stroke: #000000; stroke-width: 0.8"/>
      </g>
     </g>
     <g id="text_3">
      <!-- 1.0 -->
      <g transform="translate(428.358849 539.825156) scale(0.19 -0.19)">
       <defs>
        <path id="MalgunGothic-31" d="M 2231 0 
L 1734 0 
L 1734 3972 
Q 1591 3828 1266 3661 
Q 941 3494 672 3428 
L 672 3959 
Q 1016 4056 1409 4275 
Q 1803 4494 2031 4700 
L 2231 4700 
L 2231 0 
z
" transform="scale(0.015625)"/>
       </defs>
       <use xlink:href="#MalgunGothic-31"/>
       <use xlink:href="#MalgunGothic-2e" transform="translate(55.078125 0)"/>
       <use xlink:href="#MalgunGothic-30" transform="translate(76.953125 0)"/>
      </g>
     </g>
    </g>
    <g id="xtick_4">
     <g id="line2d_7">
      <path d="M 587.52 518.4 
L 587.52 155.52 
" clip-path="url(#p93888fc124)" style="fill: none; stroke: #b0b0b0; stroke-opacity: 0.16; stroke-width: 0.8; stroke-linecap: square"/>
     </g>
     <g id="line2d_8">
      <g>
       <use xlink:href="#mf03d2a70a8" x="587.52" y="518.4" style="stroke: #000000; stroke-width: 0.8"/>
      </g>
     </g>
     <g id="text_4">
      <!-- 1.5 -->
      <g transform="translate(574.977031 539.825156) scale(0.19 -0.19)">
       <use xlink:href="#MalgunGothic-31"/>
       <use xlink:href="#MalgunGothic-2e" transform="translate(55.078125 0)"/>
       <use xlink:href="#MalgunGothic-35" transform="translate(76.953125 0)"/>
      </g>
     </g>
    </g>
    <g id="xtick_5">
     <g id="line2d_9">
      <path d="M 734.138182 518.4 
L 734.138182 155.52 
" clip-path="url(#p93888fc124)" style="fill: none; stroke: #b0b0b0; stroke-opacity: 0.16; stroke-width: 0.8; stroke-linecap: square"/>
     </g>
     <g id="line2d_10">
      <g>
       <use xlink:href="#mf03d2a70a8" x="734.138182" y="518.4" style="stroke: #000000; stroke-width: 0.8"/>
      </g>
     </g>
     <g id="text_5">
      <!-- 2.0 -->
      <g transform="translate(721.595213 539.825156) scale(0.19 -0.19)">
       <defs>
        <path id="MalgunGothic-32" d="M 2519 3372 
Q 2519 3784 2275 4018 
Q 2031 4253 1628 4253 
Q 1341 4253 1053 4104 
Q 766 3956 534 3697 
L 534 4234 
Q 981 4675 1691 4675 
Q 2281 4675 2642 4334 
Q 3003 3994 3003 3416 
Q 3003 2919 2772 2545 
Q 2541 2172 1984 1775 
Q 1459 1406 1254 1215 
Q 1050 1025 967 854 
Q 884 684 884 450 
L 3116 450 
L 3116 0 
L 356 0 
L 356 225 
Q 356 603 461 870 
Q 566 1138 811 1392 
Q 1056 1647 1597 2022 
Q 2091 2363 2305 2670 
Q 2519 2978 2519 3372 
z
" transform="scale(0.015625)"/>
       </defs>
       <use xlink:href="#MalgunGothic-32"/>
       <use xlink:href="#MalgunGothic-2e" transform="translate(55.078125 0)"/>
       <use xlink:href="#MalgunGothic-30" transform="translate(76.953125 0)"/>
      </g>
     </g>
    </g>
    <g id="xtick_6">
     <g id="line2d_11">
      <path d="M 880.756364 518.4 
L 880.756364 155.52 
" clip-path="url(#p93888fc124)" style="fill: none; stroke: #b0b0b0; stroke-opacity: 0.16; stroke-width: 0.8; stroke-linecap: square"/>
     </g>
     <g id="line2d_12">
      <g>
       <use xlink:href="#mf03d2a70a8" x="880.756364" y="518.4" style="stroke: #000000; stroke-width: 0.8"/>
      </g>
     </g>
     <g id="text_6">
      <!-- 2.5 -->
      <g transform="translate(868.213395 539.825156) scale(0.19 -0.19)">
       <use xlink:href="#MalgunGothic-32"/>
       <use xlink:href="#MalgunGothic-2e" transform="translate(55.078125 0)"/>
       <use xlink:href="#MalgunGothic-35" transform="translate(76.953125 0)"/>
      </g>
     </g>
    </g>
    <g id="xtick_7">
     <g id="line2d_13">
      <path d="M 1027.374545 518.4 
L 1027.374545 155.52 
" clip-path="url(#p93888fc124)" style="fill: none; stroke: #b0b0b0; stroke-opacity: 0.16; stroke-width: 0.8; stroke-linecap: square"/>
     </g>
     <g id="line2d_14">
      <g>
       <use xlink:href="#mf03d2a70a8" x="1027.374545" y="518.4" style="stroke: #000000; stroke-width: 0.8"/>
      </g>
     </g>
     <g id="text_7">
      <!-- 3.0 -->
      <g transform="translate(1014.831577 539.825156) scale(0.19 -0.19)">
       <defs>
        <path id="MalgunGothic-33" d="M 416 719 
Q 891 344 1478 344 
Q 1959 344 2254 587 
Q 2550 831 2550 1247 
Q 2550 2169 1253 2169 
L 872 2169 
L 872 2591 
L 1234 2591 
Q 2388 2591 2388 3453 
Q 2388 4250 1509 4250 
Q 1022 4250 594 3916 
L 594 4413 
Q 1031 4675 1634 4675 
Q 2184 4675 2539 4372 
Q 2894 4069 2894 3581 
Q 2894 2678 1972 2409 
L 1972 2400 
Q 2469 2356 2764 2053 
Q 3059 1750 3059 1300 
Q 3059 672 2604 297 
Q 2150 -78 1450 -78 
Q 806 -78 416 169 
L 416 719 
z
" transform="scale(0.015625)"/>
       </defs>
       <use xlink:href="#MalgunGothic-33"/>
       <use xlink:href="#MalgunGothic-2e" transform="translate(55.078125 0)"/>
       <use xlink:href="#MalgunGothic-30" transform="translate(76.953125 0)"/>
      </g>
     </g>
    </g>
    <g id="text_8">
     <!-- $r=\omega/\omega_n$ -->
     <g style="fill: #142e38" transform="translate(542.09 565.019688) scale(0.22 -0.22)">
      <defs>
       <path id="DejaVuSans-Oblique-72" d="M 2853 2969 
Q 2766 3016 2653 3041 
Q 2541 3066 2413 3066 
Q 1953 3066 1609 2717 
Q 1266 2369 1153 1784 
L 800 0 
L 225 0 
L 909 3500 
L 1484 3500 
L 1375 2956 
Q 1603 3259 1920 3421 
Q 2238 3584 2597 3584 
Q 2691 3584 2781 3573 
Q 2872 3563 2963 3538 
L 2853 2969 
z
" transform="scale(0.015625)"/>
       <path id="DejaVuSans-3d" d="M 678 2906 
L 4684 2906 
L 4684 2381 
L 678 2381 
L 678 2906 
z
M 678 1631 
L 4684 1631 
L 4684 1100 
L 678 1100 
L 678 1631 
z
" transform="scale(0.015625)"/>
       <path id="DejaVuSans-Oblique-3c9" d="M 1369 -91 
Q 72 -91 434 1766 
Q 575 2500 1256 3500 
L 1875 3500 
Q 1231 2500 1088 1750 
Q 819 397 1519 397 
Q 2166 397 2478 2078 
L 3009 2078 
Q 2669 388 3316 397 
Q 4013 403 4275 1750 
Q 4419 2500 4169 3500 
L 4788 3500 
Q 5075 2500 4934 1766 
Q 4578 -94 3278 -91 
Q 2428 -88 2503 844 
Q 2194 -91 1369 -91 
z
" transform="scale(0.015625)"/>
       <path id="DejaVuSans-2f" d="M 1625 4666 
L 2156 4666 
L 531 -594 
L 0 -594 
L 1625 4666 
z
" transform="scale(0.015625)"/>
       <path id="DejaVuSans-Oblique-6e" d="M 3566 2113 
L 3156 0 
L 2578 0 
L 2988 2091 
Q 3016 2238 3031 2350 
Q 3047 2463 3047 2528 
Q 3047 2791 2881 2937 
Q 2716 3084 2419 3084 
Q 1956 3084 1622 2776 
Q 1288 2469 1184 1941 
L 800 0 
L 225 0 
L 903 3500 
L 1478 3500 
L 1363 2950 
Q 1603 3253 1940 3418 
Q 2278 3584 2650 3584 
Q 3113 3584 3367 3334 
Q 3622 3084 3622 2631 
Q 3622 2519 3608 2391 
Q 3594 2263 3566 2113 
z
" transform="scale(0.015625)"/>
      </defs>
      <use xlink:href="#DejaVuSans-Oblique-72" transform="translate(0 0.09375)"/>
      <use xlink:href="#DejaVuSans-3d" transform="translate(60.595703 0.09375)"/>
      <use xlink:href="#DejaVuSans-Oblique-3c9" transform="translate(163.867188 0.09375)"/>
      <use xlink:href="#DejaVuSans-2f" transform="translate(247.607422 0.09375)"/>
      <use xlink:href="#DejaVuSans-Oblique-3c9" transform="translate(281.298828 0.09375)"/>
      <use xlink:href="#DejaVuSans-Oblique-6e" transform="translate(365.039062 -16.3125) scale(0.7)"/>
     </g>
    </g>
   </g>
   <g id="matplotlib.axis_2">
    <g id="ytick_1">
     <g id="line2d_15">
      <path d="M 103.68 509.328 
L 1071.36 509.328 
" clip-path="url(#p93888fc124)" style="fill: none; stroke: #b0b0b0; stroke-opacity: 0.16; stroke-width: 0.8; stroke-linecap: square"/>
     </g>
     <g id="line2d_16">
      <defs>
       <path id="m4677b56cca" d="M 0 0 
L -3.5 0 
" style="stroke: #000000; stroke-width: 0.8"/>
      </defs>
      <g>
       <use xlink:href="#m4677b56cca" x="103.68" y="509.328" style="stroke: #000000; stroke-width: 0.8"/>
      </g>
     </g>
     <g id="text_9">
      <!-- 0 -->
      <g transform="translate(86.215156 516.540578) scale(0.19 -0.19)">
       <use xlink:href="#MalgunGothic-30"/>
      </g>
     </g>
    </g>
    <g id="ytick_2">
     <g id="line2d_17">
      <path d="M 103.68 346.032 
L 1071.36 346.032 
" clip-path="url(#p93888fc124)" style="fill: none; stroke: #b0b0b0; stroke-opacity: 0.16; stroke-width: 0.8; stroke-linecap: square"/>
     </g>
     <g id="line2d_18">
      <g>
       <use xlink:href="#m4677b56cca" x="103.68" y="346.032" style="stroke: #000000; stroke-width: 0.8"/>
      </g>
     </g>
     <g id="text_10">
      <!-- 90 -->
      <g transform="translate(75.750312 353.244578) scale(0.19 -0.19)">
       <defs>
        <path id="MalgunGothic-39" d="M 556 563 
Q 941 344 1366 344 
Q 1994 344 2347 855 
Q 2700 1366 2700 2313 
Q 2694 2306 2688 2313 
Q 2388 1713 1653 1713 
Q 1059 1713 682 2120 
Q 306 2528 306 3144 
Q 306 3806 711 4240 
Q 1116 4675 1772 4675 
Q 2466 4675 2833 4131 
Q 3200 3588 3200 2578 
Q 3200 1319 2717 620 
Q 2234 -78 1344 -78 
Q 881 -78 556 78 
L 556 563 
z
M 813 3219 
Q 813 2741 1063 2450 
Q 1313 2159 1759 2159 
Q 2147 2159 2406 2417 
Q 2666 2675 2666 3047 
Q 2666 3556 2411 3903 
Q 2156 4250 1725 4250 
Q 1322 4250 1067 3948 
Q 813 3647 813 3219 
z
" transform="scale(0.015625)"/>
       </defs>
       <use xlink:href="#MalgunGothic-39"/>
       <use xlink:href="#MalgunGothic-30" transform="translate(55.078125 0)"/>
      </g>
     </g>
    </g>
    <g id="ytick_3">
     <g id="line2d_19">
      <path d="M 103.68 182.736 
L 1071.36 182.736 
" clip-path="url(#p93888fc124)" style="fill: none; stroke: #b0b0b0; stroke-opacity: 0.16; stroke-width: 0.8; stroke-linecap: square"/>
     </g>
     <g id="line2d_20">
      <g>
       <use xlink:href="#m4677b56cca" x="103.68" y="182.736" style="stroke: #000000; stroke-width: 0.8"/>
      </g>
     </g>
     <g id="text_11">
      <!-- 180 -->
      <g transform="translate(65.285469 189.948578) scale(0.19 -0.19)">
       <defs>
        <path id="MalgunGothic-38" d="M 303 1281 
Q 303 1669 539 2011 
Q 775 2353 1153 2494 
Q 856 2647 675 2915 
Q 494 3184 494 3500 
Q 494 3828 659 4098 
Q 825 4369 1122 4522 
Q 1419 4675 1778 4675 
Q 2334 4675 2700 4342 
Q 3066 4009 3066 3500 
Q 3066 3181 2881 2914 
Q 2697 2647 2413 2494 
Q 2788 2350 3022 2009 
Q 3256 1669 3256 1281 
Q 3256 672 2843 297 
Q 2431 -78 1778 -78 
Q 1131 -78 717 301 
Q 303 681 303 1281 
z
M 809 1328 
Q 809 878 1081 611 
Q 1353 344 1781 344 
Q 2206 344 2482 619 
Q 2759 894 2759 1328 
Q 2759 1731 2482 2011 
Q 2206 2291 1781 2291 
Q 1372 2291 1090 2020 
Q 809 1750 809 1328 
z
M 1003 3459 
Q 1003 3125 1234 2900 
Q 1466 2675 1781 2675 
Q 2097 2675 2330 2900 
Q 2563 3125 2563 3459 
Q 2563 3803 2341 4026 
Q 2119 4250 1781 4250 
Q 1450 4250 1226 4029 
Q 1003 3809 1003 3459 
z
" transform="scale(0.015625)"/>
       </defs>
       <use xlink:href="#MalgunGothic-31"/>
       <use xlink:href="#MalgunGothic-38" transform="translate(55.078125 0)"/>
       <use xlink:href="#MalgunGothic-30" transform="translate(110.15625 0)"/>
      </g>
     </g>
    </g>
    <g id="text_12">
     <!-- 변위의 위상 지연 θ (°) -->
     <g style="fill: #142e38" transform="translate(56.084531 446.982344) rotate(-90) scale(0.22 -0.22)">
      <defs>
       <path id="MalgunGothic-bcc0" d="M 1038 2059 
L 1038 5184 
L 1497 5184 
L 1497 4072 
L 3366 4072 
L 3366 5184 
L 3828 5184 
L 3828 4416 
L 4947 4416 
L 4947 5466 
L 5416 5466 
L 5416 1063 
L 4947 1063 
L 4947 2669 
L 3828 2669 
L 3828 2059 
L 1038 2059 
z
M 3828 3084 
L 4947 3084 
L 4947 4000 
L 3828 4000 
L 3828 3084 
z
M 3366 3653 
L 1497 3653 
L 1497 2478 
L 3366 2478 
L 3366 3653 
z
M 1734 -391 
L 1734 1563 
L 2203 1563 
L 2203 25 
L 5606 25 
L 5606 -391 
L 1734 -391 
z
" transform="scale(0.015625)"/>
       <path id="MalgunGothic-c704" d="M 4997 -563 
L 4997 5466 
L 5466 5466 
L 5466 -563 
L 4997 -563 
z
M 2491 2784 
Q 1800 2784 1376 3140 
Q 953 3497 953 4038 
Q 953 4581 1376 4940 
Q 1800 5300 2491 5300 
Q 3178 5300 3598 4942 
Q 4019 4584 4019 4038 
Q 4019 3494 3600 3139 
Q 3181 2784 2491 2784 
z
M 2491 4897 
Q 2006 4897 1714 4659 
Q 1422 4422 1422 4038 
Q 1422 3653 1714 3420 
Q 2006 3188 2491 3188 
Q 2978 3188 3265 3422 
Q 3553 3656 3553 4038 
Q 3553 4419 3264 4658 
Q 2975 4897 2491 4897 
z
M 2297 -391 
L 2297 1825 
Q 903 1800 500 1800 
L 453 2209 
Q 3088 2209 4603 2297 
L 4628 1894 
Q 4203 1866 2766 1831 
L 2766 -391 
L 2297 -391 
z
" transform="scale(0.015625)"/>
       <path id="MalgunGothic-c758" d="M 5013 -563 
L 5013 5466 
L 5478 5466 
L 5478 -563 
L 5013 -563 
z
M 2450 2131 
Q 1775 2131 1315 2540 
Q 856 2950 856 3572 
Q 856 4181 1312 4593 
Q 1769 5006 2450 5006 
Q 3128 5006 3586 4590 
Q 4044 4175 4044 3572 
Q 4044 2947 3587 2539 
Q 3131 2131 2450 2131 
z
M 2450 4594 
Q 1975 4594 1656 4306 
Q 1338 4019 1338 3572 
Q 1338 3119 1664 2833 
Q 1991 2547 2450 2547 
Q 2922 2547 3244 2833 
Q 3566 3119 3566 3572 
Q 3566 4025 3247 4309 
Q 2928 4594 2450 4594 
z
M 459 531 
L 416 934 
Q 1222 934 2667 965 
Q 4113 997 4588 1038 
L 4616 634 
Q 4125 594 2679 562 
Q 1234 531 459 531 
z
" transform="scale(0.015625)"/>
       <path id="MalgunGothic-20" transform="scale(0.015625)"/>
       <path id="MalgunGothic-c0c1" d="M 5125 3391 
L 5125 1991 
L 4659 1991 
L 4659 5466 
L 5125 5466 
L 5125 3816 
L 6034 3816 
L 6034 3391 
L 5125 3391 
z
M 3603 2316 
Q 3206 2528 2778 2934 
Q 2350 3341 2188 3681 
Q 2022 3291 1609 2852 
Q 1197 2413 750 2163 
L 409 2484 
Q 1072 2806 1512 3397 
Q 1953 3988 1953 4628 
L 1953 5259 
L 2400 5259 
L 2400 4628 
Q 2400 4025 2845 3472 
Q 3291 2919 3909 2656 
L 3603 2316 
z
M 3263 -513 
Q 2322 -513 1811 -186 
Q 1300 141 1300 659 
Q 1300 1175 1812 1500 
Q 2325 1825 3263 1825 
Q 4203 1825 4715 1501 
Q 5228 1178 5228 659 
Q 5228 138 4717 -187 
Q 4206 -513 3263 -513 
z
M 3263 1428 
Q 2563 1428 2180 1215 
Q 1797 1003 1797 659 
Q 1797 309 2181 96 
Q 2566 -116 3263 -116 
Q 3969 -116 4353 98 
Q 4738 313 4738 659 
Q 4738 1000 4353 1214 
Q 3969 1428 3263 1428 
z
" transform="scale(0.015625)"/>
       <path id="MalgunGothic-c9c0" d="M 4884 -563 
L 4884 5466 
L 5350 5466 
L 5350 -563 
L 4884 -563 
z
M 3775 909 
Q 3228 1338 2822 1881 
Q 2416 2425 2297 2859 
Q 2178 2397 1756 1814 
Q 1334 1231 825 825 
L 475 1147 
Q 1191 1638 1625 2425 
Q 2059 3213 2059 4019 
L 2059 4525 
L 716 4525 
L 716 4941 
L 3884 4941 
L 3884 4525 
L 2528 4525 
L 2528 4038 
Q 2528 3238 2968 2459 
Q 3409 1681 4097 1269 
L 3775 909 
z
" transform="scale(0.015625)"/>
       <path id="MalgunGothic-c5f0" d="M 3591 2528 
Q 3134 2041 2413 2041 
Q 1734 2041 1282 2489 
Q 831 2938 831 3647 
Q 831 4369 1284 4811 
Q 1738 5253 2413 5253 
Q 3266 5253 3725 4603 
L 4959 4603 
L 4959 5466 
L 5428 5466 
L 5428 1063 
L 4959 1063 
L 4959 2528 
L 3591 2528 
z
M 2413 4844 
Q 1919 4844 1609 4520 
Q 1300 4197 1300 3647 
Q 1300 3097 1609 2773 
Q 1919 2450 2413 2450 
Q 2916 2450 3228 2775 
Q 3541 3100 3541 3647 
Q 3541 4194 3228 4519 
Q 2916 4844 2413 4844 
z
M 3859 2938 
L 4959 2938 
L 4959 4191 
L 3916 4191 
Q 4000 3931 4000 3647 
Q 4000 3263 3859 2938 
z
M 1703 -378 
L 1703 1478 
L 2169 1478 
L 2169 44 
L 5575 44 
L 5575 -378 
L 1703 -378 
z
" transform="scale(0.015625)"/>
       <path id="MalgunGothic-3b8" d="M 319 2375 
Q 319 3616 751 4267 
Q 1184 4919 1991 4919 
Q 3525 4919 3525 2456 
Q 3525 1253 3097 587 
Q 2669 -78 1884 -78 
Q 1147 -78 733 564 
Q 319 1206 319 2375 
z
M 3013 2672 
Q 2956 4491 1931 4491 
Q 1466 4491 1162 4011 
Q 859 3531 822 2672 
L 3013 2672 
z
M 819 2269 
Q 838 1322 1131 836 
Q 1425 350 1931 350 
Q 2431 350 2712 842 
Q 2994 1334 3016 2269 
L 819 2269 
z
" transform="scale(0.015625)"/>
       <path id="MalgunGothic-28" d="M 1438 -1044 
Q 447 88 447 1753 
Q 447 3431 1438 4600 
L 1888 4600 
Q 878 3372 878 1759 
Q 878 153 1881 -1044 
L 1438 -1044 
z
" transform="scale(0.015625)"/>
       <path id="MalgunGothic-b0" d="M 1234 4675 
Q 1597 4675 1858 4415 
Q 2119 4156 2119 3788 
Q 2119 3422 1859 3162 
Q 1600 2903 1234 2903 
Q 872 2903 611 3161 
Q 350 3419 350 3788 
Q 350 4156 611 4415 
Q 872 4675 1234 4675 
z
M 1234 3278 
Q 1441 3278 1594 3428 
Q 1747 3578 1747 3788 
Q 1747 3997 1595 4148 
Q 1444 4300 1234 4300 
Q 1025 4300 875 4147 
Q 725 3994 725 3788 
Q 725 3578 875 3428 
Q 1025 3278 1234 3278 
z
" transform="scale(0.015625)"/>
       <path id="MalgunGothic-29" d="M 81 -1044 
Q 1081 150 1081 1759 
Q 1081 3378 72 4600 
L 525 4600 
Q 1522 3431 1522 1753 
Q 1522 88 525 -1044 
L 81 -1044 
z
" transform="scale(0.015625)"/>
      </defs>
      <use xlink:href="#MalgunGothic-bcc0"/>
      <use xlink:href="#MalgunGothic-c704" transform="translate(100 0)"/>
      <use xlink:href="#MalgunGothic-c758" transform="translate(200 0)"/>
      <use xlink:href="#MalgunGothic-20" transform="translate(300 0)"/>
      <use xlink:href="#MalgunGothic-c704" transform="translate(335.15625 0)"/>
      <use xlink:href="#MalgunGothic-c0c1" transform="translate(435.15625 0)"/>
      <use xlink:href="#MalgunGothic-20" transform="translate(535.15625 0)"/>
      <use xlink:href="#MalgunGothic-c9c0" transform="translate(570.3125 0)"/>
      <use xlink:href="#MalgunGothic-c5f0" transform="translate(670.3125 0)"/>
      <use xlink:href="#MalgunGothic-20" transform="translate(770.3125 0)"/>
      <use xlink:href="#MalgunGothic-3b8" transform="translate(805.46875 0)"/>
      <use xlink:href="#MalgunGothic-20" transform="translate(865.429688 0)"/>
      <use xlink:href="#MalgunGothic-28" transform="translate(900.585938 0)"/>
      <use xlink:href="#MalgunGothic-b0" transform="translate(931.054688 0)"/>
      <use xlink:href="#MalgunGothic-29" transform="translate(969.726562 0)"/>
     </g>
    </g>
   </g>
   <g id="line2d_21">
    <path d="M 147.665455 509.328 
L 210.711273 506.984987 
L 242.234182 505.587816 
L 265.693091 504.338614 
L 284.753455 503.116132 
L 300.881455 501.869265 
L 314.810182 500.571439 
L 326.539636 499.260207 
L 336.802909 497.892257 
L 345.6 496.503211 
L 353.664 495.000647 
L 360.261818 493.561902 
L 366.126545 492.082855 
L 371.991273 490.36744 
L 377.122909 488.623942 
L 381.521455 486.90552 
L 385.92 484.931747 
L 389.585455 483.048489 
L 393.250909 480.900305 
L 396.183273 478.952108 
L 399.115636 476.759133 
L 402.048 474.273997 
L 404.980364 471.437052 
L 407.179636 469.033619 
L 409.378909 466.350527 
L 411.578182 463.339898 
L 413.777455 459.943593 
L 415.976727 456.090861 
L 418.176 451.695643 
L 420.375273 446.653713 
L 422.574545 440.840196 
L 424.773818 434.108668 
L 426.973091 426.294167 
L 429.172364 417.224279 
L 431.371636 406.744376 
L 433.570909 394.763376 
L 435.770182 381.320256 
L 438.702545 361.567838 
L 445.300364 315.94444 
L 447.499636 302.501999 
L 449.698909 290.521852 
L 451.898182 280.04294 
L 454.097455 270.974162 
L 456.296727 263.160884 
L 458.496 256.430689 
L 460.695273 250.618621 
L 462.894545 245.578258 
L 465.093818 241.184732 
L 467.293091 237.33382 
L 469.492364 233.939467 
L 471.691636 230.930925 
L 473.890909 228.250059 
L 476.090182 225.848992 
L 479.022545 223.015424 
L 481.954909 220.533921 
L 484.887273 218.344839 
L 487.819636 216.400799 
L 491.485091 214.258184 
L 495.150545 212.380914 
L 499.549091 210.414887 
L 503.947636 208.704829 
L 509.079273 206.971878 
L 514.210909 205.468269 
L 520.075636 203.976598 
L 526.673455 202.53108 
L 534.004364 201.154947 
L 542.068364 199.862239 
L 551.598545 198.567934 
L 562.594909 197.316951 
L 575.057455 196.137837 
L 588.986182 195.045957 
L 605.114182 194.004 
L 624.174545 192.999264 
L 646.900364 192.033595 
L 674.024727 191.115713 
L 706.280727 190.255649 
L 745.134545 189.44789 
L 792.785455 188.685393 
L 852.165818 187.965396 
L 926.941091 187.290211 
L 1022.242909 186.66119 
L 1027.374545 186.632579 
L 1027.374545 186.632579 
" clip-path="url(#p93888fc124)" style="fill: none; stroke: #087f83; stroke-width: 3; stroke-linecap: square"/>
   </g>
   <g id="patch_3">
    <path d="M 103.68 518.4 
L 103.68 155.52 
" style="fill: none; stroke: #7c898e; stroke-width: 0.8; stroke-linejoin: miter; stroke-linecap: square"/>
   </g>
   <g id="patch_4">
    <path d="M 103.68 518.4 
L 1071.36 518.4 
" style="fill: none; stroke: #7c898e; stroke-width: 0.8; stroke-linejoin: miter; stroke-linecap: square"/>
   </g>
  </g>
  <g id="text_13">
   <!-- 힘이 클 때, 변위도 가장 큰 것은 아니다 -->
   <g style="fill: #142e38" transform="translate(63.36 48.6) scale(0.32 -0.32)">
    <defs>
     <path id="MalgunGothicBold-d798" d="M 494 4306 
L 494 4934 
L 1947 4934 
L 1947 5550 
L 2731 5550 
L 2731 4934 
L 4184 4934 
L 4184 4306 
L 494 4306 
z
M 4666 1863 
L 4666 5466 
L 5453 5466 
L 5453 1863 
L 4666 1863 
z
M 2350 1913 
Q 1622 1913 1201 2216 
Q 781 2519 781 3003 
Q 781 3484 1204 3787 
Q 1628 4091 2356 4091 
Q 3081 4091 3504 3787 
Q 3928 3484 3928 3003 
Q 3928 2513 3500 2213 
Q 3072 1913 2350 1913 
z
M 2356 3463 
Q 1569 3463 1569 3003 
Q 1569 2534 2356 2534 
Q 3150 2534 3150 3003 
Q 3150 3213 2951 3338 
Q 2753 3463 2356 3463 
z
M 1472 -488 
L 1472 1606 
L 5453 1606 
L 5453 -488 
L 1472 -488 
z
M 4672 947 
L 2253 947 
L 2253 166 
L 4672 166 
L 4672 947 
z
" transform="scale(0.015625)"/>
     <path id="MalgunGothicBold-c774" d="M 4691 -563 
L 4691 5466 
L 5466 5466 
L 5466 -563 
L 4691 -563 
z
M 2203 903 
Q 1484 903 1050 1468 
Q 616 2034 616 2994 
Q 616 3969 1048 4525 
Q 1481 5081 2203 5081 
Q 2922 5081 3351 4520 
Q 3781 3959 3781 2994 
Q 3781 2025 3353 1464 
Q 2925 903 2203 903 
z
M 2203 4416 
Q 1844 4416 1612 4031 
Q 1381 3647 1381 2988 
Q 1381 2338 1618 1950 
Q 1856 1563 2203 1563 
Q 2547 1563 2784 1945 
Q 3022 2328 3022 2988 
Q 3022 3647 2792 4031 
Q 2563 4416 2203 4416 
z
" transform="scale(0.015625)"/>
     <path id="MalgunGothicBold-20" transform="scale(0.015625)"/>
     <path id="MalgunGothicBold-d074" d="M 403 2516 
L 403 3175 
L 4325 3175 
Q 4338 3322 4366 3763 
L 1147 3603 
L 972 4250 
L 4391 4366 
L 4397 4744 
L 1241 4744 
L 1241 5394 
L 5178 5394 
Q 5178 4044 5081 3175 
L 5997 3175 
L 5997 2516 
L 403 2516 
z
M 1234 -481 
L 1234 1134 
L 4397 1134 
L 4397 1484 
L 1234 1484 
L 1234 2138 
L 5178 2138 
L 5178 544 
L 2016 544 
L 2016 172 
L 5331 172 
L 5331 -481 
L 1234 -481 
z
" transform="scale(0.015625)"/>
     <path id="MalgunGothicBold-b54c" d="M 4891 -563 
L 4891 2450 
L 4469 2450 
L 4469 -384 
L 3713 -384 
L 3713 5344 
L 4469 5344 
L 4469 3109 
L 4891 3109 
L 4891 5466 
L 5650 5466 
L 5650 -563 
L 4891 -563 
z
M 3578 1234 
Q 3072 1113 2053 1113 
L 2053 4953 
L 3353 4953 
L 3353 4294 
L 2803 4294 
L 2803 1772 
Q 3178 1772 3469 1869 
L 3578 1234 
z
M 1984 1247 
Q 1416 1113 544 1113 
L 544 4953 
L 1797 4953 
L 1797 4294 
L 1300 4294 
L 1300 1772 
Q 1516 1772 1900 1888 
L 1984 1247 
z
" transform="scale(0.015625)"/>
     <path id="MalgunGothicBold-2c" d="M 1278 784 
L 797 -822 
L 128 -822 
L 466 784 
L 1278 784 
z
" transform="scale(0.015625)"/>
     <path id="MalgunGothicBold-bcc0" d="M 716 2150 
L 716 5153 
L 1484 5153 
L 1484 4256 
L 2841 4256 
L 2841 5153 
L 3616 5153 
L 3616 4603 
L 4794 4603 
L 4794 5466 
L 5563 5466 
L 5563 1153 
L 4794 1153 
L 4794 2681 
L 3616 2681 
L 3616 2150 
L 716 2150 
z
M 3616 3303 
L 4794 3303 
L 4794 3981 
L 3616 3981 
L 3616 3303 
z
M 2841 3597 
L 1484 3597 
L 1484 2803 
L 2841 2803 
L 2841 3597 
z
M 1672 -353 
L 1672 1678 
L 2456 1678 
L 2456 306 
L 5678 306 
L 5678 -353 
L 1672 -353 
z
" transform="scale(0.015625)"/>
     <path id="MalgunGothicBold-c704" d="M 4775 -563 
L 4775 5466 
L 5556 5466 
L 5556 -563 
L 4775 -563 
z
M 2388 2778 
Q 1675 2778 1228 3131 
Q 781 3484 781 4050 
Q 781 4616 1229 4973 
Q 1678 5331 2388 5331 
Q 3100 5331 3553 4973 
Q 4006 4616 4006 4050 
Q 4006 3497 3553 3137 
Q 3100 2778 2388 2778 
z
M 2394 4709 
Q 1997 4709 1762 4532 
Q 1528 4356 1528 4050 
Q 1528 3766 1778 3583 
Q 2028 3400 2394 3400 
Q 2766 3400 3008 3581 
Q 3250 3763 3250 4050 
Q 3250 4347 3012 4528 
Q 2775 4709 2394 4709 
z
M 2022 -397 
L 2022 1656 
Q 1025 1631 403 1631 
L 325 2303 
Q 2691 2303 4459 2400 
L 4506 1734 
L 2803 1678 
L 2803 -397 
L 2022 -397 
z
" transform="scale(0.015625)"/>
     <path id="MalgunGothicBold-b3c4" d="M 403 263 
L 403 916 
L 2803 916 
L 2803 2113 
L 1294 2113 
L 1294 4934 
L 5106 4934 
L 5106 4281 
L 2081 4281 
L 2081 2766 
L 5197 2766 
L 5197 2113 
L 3591 2113 
L 3591 916 
L 5997 916 
L 5997 263 
L 403 263 
z
" transform="scale(0.015625)"/>
     <path id="MalgunGothicBold-ac00" d="M 5269 2431 
L 5269 -563 
L 4481 -563 
L 4481 5466 
L 5269 5466 
L 5269 3091 
L 6203 3091 
L 6203 2431 
L 5269 2431 
z
M 978 756 
L 391 1306 
Q 2413 2416 2834 4288 
L 738 4288 
L 738 4947 
L 3725 4947 
Q 3478 2297 978 756 
z
" transform="scale(0.015625)"/>
     <path id="MalgunGothicBold-c7a5" d="M 5259 3328 
L 5259 1947 
L 4475 1947 
L 4475 5466 
L 5259 5466 
L 5259 3988 
L 6175 3988 
L 6175 3328 
L 5259 3328 
z
M 3566 2113 
Q 2672 2556 2222 3213 
Q 2056 2869 1640 2476 
Q 1225 2084 856 1906 
L 300 2456 
Q 928 2694 1367 3217 
Q 1806 3741 1806 4300 
L 1806 4544 
L 563 4544 
L 563 5197 
L 3803 5197 
L 3803 4544 
L 2591 4544 
L 2591 4325 
Q 2591 3788 3002 3353 
Q 3413 2919 4063 2706 
L 3566 2113 
z
M 3347 -538 
Q 2388 -538 1863 -208 
Q 1338 122 1338 666 
Q 1338 1206 1869 1531 
Q 2400 1856 3347 1856 
Q 4297 1856 4826 1532 
Q 5356 1209 5356 666 
Q 5356 119 4829 -209 
Q 4303 -538 3347 -538 
z
M 3347 1203 
Q 2150 1203 2150 666 
Q 2150 116 3347 116 
Q 4550 116 4550 666 
Q 4550 1203 3347 1203 
z
" transform="scale(0.015625)"/>
     <path id="MalgunGothicBold-d070" d="M 403 1978 
L 403 2638 
L 4341 2638 
L 4372 3425 
L 1119 3284 
L 947 3928 
L 4384 4025 
Q 4397 4363 4397 4563 
L 1241 4563 
L 1241 5216 
L 5178 5216 
Q 5178 3734 5094 2638 
L 5997 2638 
L 5997 1978 
L 403 1978 
z
M 1228 -306 
L 1228 1613 
L 2016 1613 
L 2016 353 
L 5259 353 
L 5259 -306 
L 1228 -306 
z
" transform="scale(0.015625)"/>
     <path id="MalgunGothicBold-ac83" d="M 4794 1453 
L 4794 3122 
L 3359 3122 
L 3359 3788 
L 4794 3788 
L 4794 5466 
L 5563 5466 
L 5563 1453 
L 4794 1453 
z
M 3713 5119 
Q 3447 2894 997 1766 
L 447 2369 
Q 1322 2672 1942 3251 
Q 2563 3831 2759 4459 
L 813 4459 
L 813 5119 
L 3713 5119 
z
M 5447 -569 
Q 4884 -481 4275 -100 
Q 3666 281 3406 678 
Q 3197 319 2595 -59 
Q 1994 -438 1409 -569 
L 934 50 
Q 1834 166 2425 642 
Q 3016 1119 3016 1606 
L 3016 1906 
L 3794 1906 
L 3794 1613 
Q 3794 1128 4383 650 
Q 4972 172 5881 44 
L 5447 -569 
z
" transform="scale(0.015625)"/>
     <path id="MalgunGothicBold-c740" d="M 3200 2828 
Q 2244 2828 1705 3164 
Q 1166 3500 1166 4056 
Q 1166 4619 1716 4966 
Q 2266 5313 3200 5313 
Q 4134 5313 4684 4966 
Q 5234 4619 5234 4056 
Q 5234 3500 4692 3164 
Q 4150 2828 3200 2828 
z
M 3200 4672 
Q 2600 4672 2283 4505 
Q 1966 4338 1966 4056 
Q 1966 3778 2287 3623 
Q 2609 3469 3200 3469 
Q 3791 3469 4112 3623 
Q 4434 3778 4434 4056 
Q 4434 4338 4117 4505 
Q 3800 4672 3200 4672 
z
M 403 1716 
L 403 2375 
L 5997 2375 
L 5997 1716 
L 403 1716 
z
M 1222 -306 
L 1222 1381 
L 2009 1381 
L 2009 353 
L 5253 353 
L 5253 -306 
L 1222 -306 
z
" transform="scale(0.015625)"/>
     <path id="MalgunGothicBold-c544" d="M 5259 2491 
L 5259 -563 
L 4481 -563 
L 4481 5466 
L 5259 5466 
L 5259 3150 
L 6203 3150 
L 6203 2491 
L 5259 2491 
z
M 2163 903 
Q 1434 903 995 1465 
Q 556 2028 556 2994 
Q 556 3978 993 4529 
Q 1431 5081 2163 5081 
Q 2888 5081 3325 4523 
Q 3763 3966 3763 2994 
Q 3763 2022 3325 1462 
Q 2888 903 2163 903 
z
M 2163 4416 
Q 1803 4416 1570 4036 
Q 1338 3656 1338 2988 
Q 1338 2341 1573 1952 
Q 1809 1563 2163 1563 
Q 2509 1563 2748 1955 
Q 2988 2347 2988 2988 
Q 2988 3650 2756 4033 
Q 2525 4416 2163 4416 
z
" transform="scale(0.015625)"/>
     <path id="MalgunGothicBold-b2c8" d="M 4603 -563 
L 4603 5466 
L 5375 5466 
L 5375 -563 
L 4603 -563 
z
M 4244 1375 
Q 3600 1206 2191 1206 
L 831 1216 
L 831 5031 
L 1606 5031 
L 1606 1875 
Q 2797 1875 3247 1897 
Q 3697 1919 4159 2003 
L 4244 1375 
z
" transform="scale(0.015625)"/>
     <path id="MalgunGothicBold-b2e4" d="M 5197 2522 
L 5197 -563 
L 4416 -563 
L 4416 5466 
L 5197 5466 
L 5197 3181 
L 6203 3181 
L 6203 2522 
L 5197 2522 
z
M 3969 1197 
Q 3269 1100 1619 1100 
L 709 1100 
L 709 4953 
L 3584 4953 
L 3584 4294 
L 1491 4294 
L 1491 1753 
L 1794 1753 
Q 3253 1753 3897 1844 
L 3969 1197 
z
" transform="scale(0.015625)"/>
    </defs>
    <use xlink:href="#MalgunGothicBold-d798"/>
    <use xlink:href="#MalgunGothicBold-c774" transform="translate(100 0)"/>
    <use xlink:href="#MalgunGothicBold-20" transform="translate(200 0)"/>
    <use xlink:href="#MalgunGothicBold-d074" transform="translate(235.15625 0)"/>
    <use xlink:href="#MalgunGothicBold-20" transform="translate(335.15625 0)"/>
    <use xlink:href="#MalgunGothicBold-b54c" transform="translate(370.3125 0)"/>
    <use xlink:href="#MalgunGothicBold-2c" transform="translate(470.3125 0)"/>
    <use xlink:href="#MalgunGothicBold-20" transform="translate(496.484375 0)"/>
    <use xlink:href="#MalgunGothicBold-bcc0" transform="translate(531.640625 0)"/>
    <use xlink:href="#MalgunGothicBold-c704" transform="translate(631.640625 0)"/>
    <use xlink:href="#MalgunGothicBold-b3c4" transform="translate(731.640625 0)"/>
    <use xlink:href="#MalgunGothicBold-20" transform="translate(831.640625 0)"/>
    <use xlink:href="#MalgunGothicBold-ac00" transform="translate(866.796875 0)"/>
    <use xlink:href="#MalgunGothicBold-c7a5" transform="translate(966.796875 0)"/>
    <use xlink:href="#MalgunGothicBold-20" transform="translate(1066.796875 0)"/>
    <use xlink:href="#MalgunGothicBold-d070" transform="translate(1101.953125 0)"/>
    <use xlink:href="#MalgunGothicBold-20" transform="translate(1201.953125 0)"/>
    <use xlink:href="#MalgunGothicBold-ac83" transform="translate(1237.109375 0)"/>
    <use xlink:href="#MalgunGothicBold-c740" transform="translate(1337.109375 0)"/>
    <use xlink:href="#MalgunGothicBold-20" transform="translate(1437.109375 0)"/>
    <use xlink:href="#MalgunGothicBold-c544" transform="translate(1472.265625 0)"/>
    <use xlink:href="#MalgunGothicBold-b2c8" transform="translate(1572.265625 0)"/>
    <use xlink:href="#MalgunGothicBold-b2e4" transform="translate(1672.265625 0)"/>
   </g>
  </g>
  <g id="text_14">
   <!-- 정상상태 위상: 동적 힘의 평형은 부호와 시간차까지 포함한다 -->
   <g style="fill: #7c898e" transform="translate(63.36 87.48) scale(0.21 -0.21)">
    <defs>
     <path id="MalgunGothic-c815" d="M 4947 1984 
L 4947 3694 
L 3541 3694 
L 3541 4109 
L 4947 4109 
L 4947 5466 
L 5416 5466 
L 5416 1984 
L 4947 1984 
z
M 3653 2328 
Q 3244 2550 2831 2950 
Q 2419 3350 2253 3700 
Q 2075 3303 1659 2858 
Q 1244 2413 819 2175 
L 488 2497 
Q 1134 2806 1571 3393 
Q 2009 3981 2009 4628 
L 2009 4781 
L 684 4781 
L 684 5197 
L 3788 5197 
L 3788 4781 
L 2463 4781 
L 2463 4628 
Q 2463 4025 2916 3472 
Q 3369 2919 3969 2669 
L 3653 2328 
z
M 3566 -475 
Q 2622 -475 2108 -148 
Q 1594 178 1594 697 
Q 1594 1216 2106 1539 
Q 2619 1863 3566 1863 
Q 4513 1863 5025 1539 
Q 5538 1216 5538 697 
Q 5538 178 5023 -148 
Q 4509 -475 3566 -475 
z
M 3566 1466 
Q 2850 1466 2472 1248 
Q 2094 1031 2094 697 
Q 2094 359 2473 143 
Q 2853 -72 3566 -72 
Q 4275 -72 4656 142 
Q 5038 356 5038 697 
Q 5038 1034 4659 1250 
Q 4281 1466 3566 1466 
z
" transform="scale(0.015625)"/>
     <path id="MalgunGothic-d0dc" d="M 5106 -563 
L 5106 2572 
L 4331 2572 
L 4331 -378 
L 3872 -378 
L 3872 5344 
L 4331 5344 
L 4331 2988 
L 5106 2988 
L 5106 5466 
L 5575 5466 
L 5575 -563 
L 5106 -563 
z
M 1288 2797 
L 1288 1416 
L 1525 1416 
Q 2763 1416 3359 1484 
L 3391 1088 
Q 2481 1006 825 1006 
L 825 4934 
L 3175 4934 
L 3175 4519 
L 1288 4519 
L 1288 3200 
L 2994 3200 
L 2994 2797 
L 1288 2797 
z
" transform="scale(0.015625)"/>
     <path id="MalgunGothic-3a" d="M 356 3006 
Q 356 3153 459 3254 
Q 563 3356 700 3356 
Q 838 3356 941 3254 
Q 1044 3153 1044 3006 
Q 1044 2863 942 2761 
Q 841 2659 700 2659 
Q 559 2659 457 2761 
Q 356 2863 356 3006 
z
M 356 275 
Q 356 422 459 523 
Q 563 625 700 625 
Q 838 625 941 523 
Q 1044 422 1044 275 
Q 1044 138 942 33 
Q 841 -72 700 -72 
Q 559 -72 457 29 
Q 356 131 356 275 
z
" transform="scale(0.015625)"/>
     <path id="MalgunGothic-b3d9" d="M 403 2119 
L 403 2534 
L 2963 2534 
L 2963 3316 
L 1338 3316 
L 1338 5325 
L 5081 5325 
L 5081 4909 
L 1813 4909 
L 1813 3731 
L 5153 3731 
L 5153 3316 
L 3438 3316 
L 3438 2534 
L 5997 2534 
L 5997 2119 
L 403 2119 
z
M 3200 -513 
Q 2247 -513 1740 -211 
Q 1234 91 1234 603 
Q 1234 1116 1742 1416 
Q 2250 1716 3200 1716 
Q 4150 1716 4658 1416 
Q 5166 1116 5166 603 
Q 5166 91 4659 -211 
Q 4153 -513 3200 -513 
z
M 3200 1319 
Q 2478 1319 2103 1126 
Q 1728 934 1728 603 
Q 1728 272 2104 78 
Q 2481 -116 3200 -116 
Q 3919 -116 4295 78 
Q 4672 272 4672 603 
Q 4672 934 4295 1126 
Q 3919 1319 3200 1319 
z
" transform="scale(0.015625)"/>
     <path id="MalgunGothic-c801" d="M 4884 1991 
L 4884 3688 
L 3444 3688 
L 3444 4109 
L 4884 4109 
L 4884 5466 
L 5350 5466 
L 5350 1991 
L 4884 1991 
z
M 3653 2297 
Q 3244 2519 2830 2911 
Q 2416 3303 2253 3647 
Q 2084 3263 1665 2819 
Q 1247 2375 819 2144 
L 488 2463 
Q 1147 2781 1578 3361 
Q 2009 3941 2009 4575 
L 2009 4781 
L 684 4781 
L 684 5197 
L 3788 5197 
L 3788 4781 
L 2463 4781 
L 2463 4575 
Q 2463 3981 2911 3434 
Q 3359 2888 3969 2638 
L 3653 2297 
z
M 4884 -563 
L 4884 1234 
L 1428 1234 
L 1428 1650 
L 5350 1650 
L 5350 -563 
L 4884 -563 
z
" transform="scale(0.015625)"/>
     <path id="MalgunGothic-d798" d="M 659 4306 
L 659 4716 
L 2209 4716 
L 2209 5497 
L 2675 5497 
L 2675 4716 
L 4225 4716 
L 4225 4306 
L 659 4306 
z
M 4953 1869 
L 4953 5466 
L 5422 5466 
L 5422 1869 
L 4953 1869 
z
M 2450 1966 
Q 1753 1966 1356 2253 
Q 959 2541 959 2994 
Q 959 3450 1361 3740 
Q 1763 4031 2456 4031 
Q 3147 4031 3548 3743 
Q 3950 3456 3950 2994 
Q 3950 2544 3550 2255 
Q 3150 1966 2450 1966 
z
M 2456 3634 
Q 1975 3634 1701 3459 
Q 1428 3284 1428 2994 
Q 1428 2706 1700 2534 
Q 1972 2363 2456 2363 
Q 2941 2363 3211 2534 
Q 3481 2706 3481 2994 
Q 3481 3281 3209 3457 
Q 2938 3634 2456 3634 
z
M 1709 -453 
L 1709 1538 
L 5422 1538 
L 5422 -453 
L 1709 -453 
z
M 4953 1125 
L 2169 1125 
L 2169 -38 
L 4953 -38 
L 4953 1125 
z
" transform="scale(0.015625)"/>
     <path id="MalgunGothic-d3c9" d="M 3884 2994 
L 3884 3391 
L 4947 3391 
L 4947 3969 
L 3884 3969 
L 3884 4366 
L 4947 4366 
L 4947 5466 
L 5416 5466 
L 5416 1881 
L 4947 1881 
L 4947 2994 
L 3884 2994 
z
M 794 4750 
L 794 5159 
L 4056 5159 
L 4056 4750 
L 794 4750 
z
M 4306 2247 
Q 3913 2169 3231 2169 
L 647 2169 
L 647 2578 
L 1466 2578 
L 1394 4475 
L 1850 4475 
L 1906 2578 
L 2900 2578 
L 2956 4475 
L 3413 4475 
L 3334 2584 
Q 3897 2584 4275 2650 
L 4306 2247 
z
M 3547 -538 
Q 2594 -538 2081 -227 
Q 1569 84 1569 594 
Q 1569 1100 2076 1411 
Q 2584 1722 3547 1722 
Q 4506 1722 5017 1411 
Q 5528 1100 5528 594 
Q 5528 84 5012 -227 
Q 4497 -538 3547 -538 
z
M 3547 1325 
Q 2834 1325 2451 1128 
Q 2069 931 2069 594 
Q 2069 259 2453 62 
Q 2838 -134 3547 -134 
Q 4256 -134 4647 62 
Q 5038 259 5038 594 
Q 5038 931 4648 1128 
Q 4259 1325 3547 1325 
z
" transform="scale(0.015625)"/>
     <path id="MalgunGothic-d615" d="M 494 4306 
L 494 4716 
L 2028 4716 
L 2028 5497 
L 2491 5497 
L 2491 4716 
L 4025 4716 
L 4025 4306 
L 494 4306 
z
M 3950 2463 
L 3950 2875 
L 4947 2875 
L 4947 3541 
L 3950 3541 
L 3950 3944 
L 4947 3944 
L 4947 5466 
L 5416 5466 
L 5416 1778 
L 4947 1778 
L 4947 2463 
L 3950 2463 
z
M 2253 1959 
Q 1584 1959 1192 2257 
Q 800 2556 800 3009 
Q 800 3459 1189 3754 
Q 1578 4050 2259 4050 
Q 2934 4050 3323 3754 
Q 3713 3459 3713 3009 
Q 3713 2556 3320 2257 
Q 2928 1959 2253 1959 
z
M 2259 3653 
Q 1797 3653 1533 3475 
Q 1269 3297 1269 3009 
Q 1269 2722 1534 2539 
Q 1800 2356 2259 2356 
Q 2719 2356 2981 2539 
Q 3244 2722 3244 3009 
Q 3244 3294 2983 3473 
Q 2722 3653 2259 3653 
z
M 3481 -519 
Q 2519 -519 2001 -226 
Q 1484 66 1484 563 
Q 1484 1059 2000 1348 
Q 2516 1638 3481 1638 
Q 4456 1638 4967 1347 
Q 5478 1056 5478 563 
Q 5478 66 4964 -226 
Q 4450 -519 3481 -519 
z
M 3481 1241 
Q 2753 1241 2368 1062 
Q 1984 884 1984 563 
Q 1984 241 2364 59 
Q 2744 -122 3481 -122 
Q 4222 -122 4603 61 
Q 4984 244 4984 563 
Q 4984 884 4598 1062 
Q 4213 1241 3481 1241 
z
" transform="scale(0.015625)"/>
     <path id="MalgunGothic-c740" d="M 3200 2950 
Q 2309 2950 1817 3287 
Q 1325 3625 1325 4159 
Q 1325 4694 1815 5028 
Q 2306 5363 3200 5363 
Q 4094 5363 4587 5028 
Q 5081 4694 5081 4159 
Q 5081 3625 4584 3287 
Q 4088 2950 3200 2950 
z
M 3200 4966 
Q 2541 4966 2177 4747 
Q 1813 4528 1813 4159 
Q 1813 3791 2177 3572 
Q 2541 3353 3200 3353 
Q 3859 3353 4223 3572 
Q 4588 3791 4588 4159 
Q 4588 4528 4223 4747 
Q 3859 4966 3200 4966 
z
M 403 1919 
L 403 2344 
L 5997 2344 
L 5997 1919 
L 403 1919 
z
M 1338 -359 
L 1338 1331 
L 1813 1331 
L 1813 56 
L 5203 56 
L 5203 -359 
L 1338 -359 
z
" transform="scale(0.015625)"/>
     <path id="MalgunGothic-bd80" d="M 1306 2822 
L 1306 5288 
L 1766 5288 
L 1766 4428 
L 4634 4428 
L 4634 5288 
L 5094 5288 
L 5094 2822 
L 1306 2822 
z
M 4634 4019 
L 1766 4019 
L 1766 3231 
L 4634 3231 
L 4634 4019 
z
M 3431 1619 
L 3431 -563 
L 2963 -563 
L 2963 1619 
L 403 1619 
L 403 2041 
L 5997 2041 
L 5997 1619 
L 3431 1619 
z
" transform="scale(0.015625)"/>
     <path id="MalgunGothic-d638" d="M 897 4256 
L 897 4666 
L 2969 4666 
L 2969 5403 
L 3431 5403 
L 3431 4666 
L 5503 4666 
L 5503 4256 
L 897 4256 
z
M 403 359 
L 403 769 
L 2969 769 
L 2969 1656 
Q 2147 1694 1694 2009 
Q 1241 2325 1241 2797 
Q 1241 3294 1748 3616 
Q 2256 3938 3200 3938 
Q 4134 3938 4643 3619 
Q 5153 3300 5153 2797 
Q 5153 2325 4700 2009 
Q 4247 1694 3431 1656 
L 3431 769 
L 5997 769 
L 5997 359 
L 403 359 
z
M 3200 3541 
Q 2484 3541 2109 3337 
Q 1734 3134 1734 2797 
Q 1734 2456 2109 2251 
Q 2484 2047 3200 2047 
Q 3916 2047 4287 2251 
Q 4659 2456 4659 2797 
Q 4659 3134 4286 3337 
Q 3913 3541 3200 3541 
z
" transform="scale(0.015625)"/>
     <path id="MalgunGothic-c640" d="M 5203 2600 
L 5203 -563 
L 4738 -563 
L 4738 5466 
L 5203 5466 
L 5203 3016 
L 6188 3016 
L 6188 2600 
L 5203 2600 
z
M 2572 2138 
L 2572 959 
Q 3872 991 4353 1025 
L 4378 622 
Q 3956 588 2537 553 
Q 1119 519 378 519 
L 325 934 
Q 1281 934 2106 953 
L 2106 2131 
Q 1466 2203 1094 2601 
Q 722 3000 722 3572 
Q 722 4213 1187 4616 
Q 1653 5019 2350 5019 
Q 3038 5019 3477 4619 
Q 3916 4219 3916 3572 
Q 3916 2997 3556 2611 
Q 3197 2225 2572 2138 
z
M 2316 4609 
Q 1825 4609 1514 4321 
Q 1203 4034 1203 3572 
Q 1203 3116 1515 2825 
Q 1828 2534 2316 2534 
Q 2806 2534 3122 2826 
Q 3438 3119 3438 3572 
Q 3438 4031 3125 4320 
Q 2813 4609 2316 4609 
z
" transform="scale(0.015625)"/>
     <path id="MalgunGothic-c2dc" d="M 4947 -563 
L 4947 5466 
L 5416 5466 
L 5416 -563 
L 4947 -563 
z
M 3769 966 
Q 3263 1353 2820 1939 
Q 2378 2525 2259 2950 
Q 2116 2463 1687 1872 
Q 1259 1281 756 891 
L 397 1203 
Q 1141 1703 1581 2479 
Q 2022 3256 2022 4063 
L 2022 5050 
L 2484 5050 
L 2484 4084 
Q 2484 3303 2920 2556 
Q 3356 1809 4097 1331 
L 3769 966 
z
" transform="scale(0.015625)"/>
     <path id="MalgunGothic-ac04" d="M 5125 3122 
L 5125 1063 
L 4659 1063 
L 4659 5466 
L 5125 5466 
L 5125 3541 
L 6034 3541 
L 6034 3122 
L 5125 3122 
z
M 3513 5100 
Q 3403 3872 2556 3011 
Q 1709 2150 794 1800 
L 469 2163 
Q 1344 2450 2087 3172 
Q 2831 3894 2963 4678 
L 831 4678 
L 831 5100 
L 3513 5100 
z
M 1459 -325 
L 1459 1509 
L 1925 1509 
L 1925 97 
L 5294 97 
L 5294 -325 
L 1459 -325 
z
" transform="scale(0.015625)"/>
     <path id="MalgunGothic-cc28" d="M 3803 972 
Q 3288 1272 2848 1772 
Q 2409 2272 2266 2663 
Q 2144 2278 1692 1715 
Q 1241 1153 775 850 
L 428 1197 
Q 1084 1513 1559 2223 
Q 2034 2934 2034 3597 
L 2034 4206 
L 563 4206 
L 563 4622 
L 2028 4622 
L 2028 5466 
L 2491 5466 
L 2491 4622 
L 3956 4622 
L 3956 4206 
L 2491 4206 
L 2491 3578 
Q 2491 2938 2966 2281 
Q 3441 1625 4122 1338 
L 3803 972 
z
M 5094 2497 
L 5094 -563 
L 4628 -563 
L 4628 5466 
L 5094 5466 
L 5094 2919 
L 6081 2919 
L 6081 2497 
L 5094 2497 
z
" transform="scale(0.015625)"/>
     <path id="MalgunGothic-ae4c" d="M 5125 2600 
L 5125 -563 
L 4659 -563 
L 4659 5466 
L 5125 5466 
L 5125 3016 
L 6113 3016 
L 6113 2600 
L 5125 2600 
z
M 3847 4672 
Q 3847 2109 2522 469 
L 2094 678 
Q 2722 1369 3056 2373 
Q 3391 3378 3391 4519 
L 2419 4519 
L 2419 4934 
L 3847 4934 
L 3847 4672 
z
M 2175 4697 
Q 2175 2538 781 1203 
L 384 1441 
Q 1013 1997 1367 2811 
Q 1722 3625 1722 4519 
L 653 4519 
L 653 4934 
L 2175 4934 
L 2175 4697 
z
" transform="scale(0.015625)"/>
     <path id="MalgunGothic-d3ec" d="M 997 4897 
L 5403 4897 
L 5403 4488 
L 997 4488 
L 997 4897 
z
M 4494 2478 
L 5478 2478 
L 5478 2059 
L 3438 2059 
L 3438 756 
L 5997 756 
L 5997 341 
L 403 341 
L 403 756 
L 2963 756 
L 2963 2059 
L 922 2059 
L 922 2478 
L 1906 2478 
L 1831 4172 
L 2291 4172 
L 2375 2478 
L 4025 2478 
L 4109 4172 
L 4569 4172 
L 4494 2478 
z
" transform="scale(0.015625)"/>
     <path id="MalgunGothic-d568" d="M 447 4306 
L 447 4716 
L 1997 4716 
L 1997 5497 
L 2463 5497 
L 2463 4716 
L 4013 4716 
L 4013 4306 
L 447 4306 
z
M 5125 3150 
L 5125 1869 
L 4659 1869 
L 4659 5466 
L 5125 5466 
L 5125 3572 
L 6034 3572 
L 6034 3150 
L 5125 3150 
z
M 2241 1966 
Q 1544 1966 1150 2252 
Q 756 2538 756 2994 
Q 756 3453 1154 3742 
Q 1553 4031 2247 4031 
Q 2941 4031 3339 3742 
Q 3738 3453 3738 2994 
Q 3738 2544 3339 2255 
Q 2941 1966 2241 1966 
z
M 2247 3634 
Q 1763 3634 1489 3456 
Q 1216 3278 1216 2994 
Q 1216 2713 1487 2538 
Q 1759 2363 2247 2363 
Q 2734 2363 3006 2538 
Q 3278 2713 3278 2994 
Q 3278 3278 3004 3456 
Q 2731 3634 2247 3634 
z
M 1428 -453 
L 1428 1538 
L 5125 1538 
L 5125 -453 
L 1428 -453 
z
M 4666 1125 
L 1888 1125 
L 1888 -38 
L 4666 -38 
L 4666 1125 
z
" transform="scale(0.015625)"/>
     <path id="MalgunGothic-d55c" d="M 5125 2713 
L 5125 978 
L 4659 978 
L 4659 5466 
L 5125 5466 
L 5125 3138 
L 6034 3138 
L 6034 2713 
L 5125 2713 
z
M 447 4244 
L 447 4659 
L 2003 4659 
L 2003 5441 
L 2478 5441 
L 2478 4659 
L 4031 4659 
L 4031 4244 
L 447 4244 
z
M 2241 1650 
Q 1559 1650 1161 1979 
Q 763 2309 763 2791 
Q 763 3266 1161 3594 
Q 1559 3922 2247 3922 
Q 2931 3922 3331 3595 
Q 3731 3269 3731 2791 
Q 3731 2316 3329 1983 
Q 2928 1650 2241 1650 
z
M 2247 3525 
Q 1772 3525 1497 3319 
Q 1222 3113 1222 2791 
Q 1222 2466 1498 2256 
Q 1775 2047 2247 2047 
Q 2719 2047 2995 2256 
Q 3272 2466 3272 2791 
Q 3272 3113 2997 3319 
Q 2722 3525 2247 3525 
z
M 1459 -453 
L 1459 1216 
L 1919 1216 
L 1919 -38 
L 5313 -38 
L 5313 -453 
L 1459 -453 
z
" transform="scale(0.015625)"/>
     <path id="MalgunGothic-b2e4" d="M 5094 2669 
L 5094 -563 
L 4628 -563 
L 4628 5466 
L 5094 5466 
L 5094 3091 
L 6156 3091 
L 6156 2669 
L 5094 2669 
z
M 4050 1234 
Q 3538 1172 3003 1159 
Q 2469 1147 838 1147 
L 838 4934 
L 3653 4934 
L 3653 4519 
L 1306 4519 
L 1306 1563 
Q 3566 1563 4013 1638 
L 4050 1234 
z
" transform="scale(0.015625)"/>
    </defs>
    <use xlink:href="#MalgunGothic-c815"/>
    <use xlink:href="#MalgunGothic-c0c1" transform="translate(100 0)"/>
    <use xlink:href="#MalgunGothic-c0c1" transform="translate(200 0)"/>
    <use xlink:href="#MalgunGothic-d0dc" transform="translate(300 0)"/>
    <use xlink:href="#MalgunGothic-20" transform="translate(400 0)"/>
    <use xlink:href="#MalgunGothic-c704" transform="translate(435.15625 0)"/>
    <use xlink:href="#MalgunGothic-c0c1" transform="translate(535.15625 0)"/>
    <use xlink:href="#MalgunGothic-3a" transform="translate(635.15625 0)"/>
    <use xlink:href="#MalgunGothic-20" transform="translate(657.03125 0)"/>
    <use xlink:href="#MalgunGothic-b3d9" transform="translate(692.1875 0)"/>
    <use xlink:href="#MalgunGothic-c801" transform="translate(792.1875 0)"/>
    <use xlink:href="#MalgunGothic-20" transform="translate(892.1875 0)"/>
    <use xlink:href="#MalgunGothic-d798" transform="translate(927.34375 0)"/>
    <use xlink:href="#MalgunGothic-c758" transform="translate(1027.34375 0)"/>
    <use xlink:href="#MalgunGothic-20" transform="translate(1127.34375 0)"/>
    <use xlink:href="#MalgunGothic-d3c9" transform="translate(1162.5 0)"/>
    <use xlink:href="#MalgunGothic-d615" transform="translate(1262.5 0)"/>
    <use xlink:href="#MalgunGothic-c740" transform="translate(1362.5 0)"/>
    <use xlink:href="#MalgunGothic-20" transform="translate(1462.5 0)"/>
    <use xlink:href="#MalgunGothic-bd80" transform="translate(1497.65625 0)"/>
    <use xlink:href="#MalgunGothic-d638" transform="translate(1597.65625 0)"/>
    <use xlink:href="#MalgunGothic-c640" transform="translate(1697.65625 0)"/>
    <use xlink:href="#MalgunGothic-20" transform="translate(1797.65625 0)"/>
    <use xlink:href="#MalgunGothic-c2dc" transform="translate(1832.8125 0)"/>
    <use xlink:href="#MalgunGothic-ac04" transform="translate(1932.8125 0)"/>
    <use xlink:href="#MalgunGothic-cc28" transform="translate(2032.8125 0)"/>
    <use xlink:href="#MalgunGothic-ae4c" transform="translate(2132.8125 0)"/>
    <use xlink:href="#MalgunGothic-c9c0" transform="translate(2232.8125 0)"/>
    <use xlink:href="#MalgunGothic-20" transform="translate(2332.8125 0)"/>
    <use xlink:href="#MalgunGothic-d3ec" transform="translate(2367.96875 0)"/>
    <use xlink:href="#MalgunGothic-d568" transform="translate(2467.96875 0)"/>
    <use xlink:href="#MalgunGothic-d55c" transform="translate(2567.96875 0)"/>
    <use xlink:href="#MalgunGothic-b2e4" transform="translate(2667.96875 0)"/>
   </g>
  </g>
  <g id="text_15">
   <!-- r=1이면 힘과 속도가 동상이다. 가진이 매 주기 에너지를 공급한다. -->
   <g style="fill: #142e38" transform="translate(63.36 612.36) scale(0.21 -0.21)">
    <defs>
     <path id="MalgunGothic-72" d="M 2225 2775 
Q 2084 2881 1828 2881 
Q 1491 2881 1262 2553 
Q 1034 2225 1034 1681 
L 1034 0 
L 538 0 
L 538 3284 
L 1034 3284 
L 1034 2603 
L 1047 2603 
Q 1159 2950 1389 3145 
Q 1619 3341 1903 3341 
Q 2109 3341 2225 3297 
L 2225 2775 
z
" transform="scale(0.015625)"/>
     <path id="MalgunGothic-3d" d="M 3750 2397 
L 744 2397 
L 744 2803 
L 3750 2803 
L 3750 2397 
z
M 3750 1031 
L 744 1031 
L 744 1441 
L 3750 1441 
L 3750 1031 
z
" transform="scale(0.015625)"/>
     <path id="MalgunGothic-c774" d="M 4947 -563 
L 4947 5466 
L 5416 5466 
L 5416 -563 
L 4947 -563 
z
M 2284 959 
Q 1597 959 1173 1514 
Q 750 2069 750 3016 
Q 750 3975 1169 4522 
Q 1588 5069 2284 5069 
Q 2978 5069 3403 4522 
Q 3828 3975 3828 3016 
Q 3828 2063 3401 1511 
Q 2975 959 2284 959 
z
M 2284 4653 
Q 1803 4653 1503 4204 
Q 1203 3756 1203 3016 
Q 1203 2278 1506 1826 
Q 1809 1375 2284 1375 
Q 2756 1375 3061 1828 
Q 3366 2281 3366 3016 
Q 3366 3759 3067 4206 
Q 2769 4653 2284 4653 
z
" transform="scale(0.015625)"/>
     <path id="MalgunGothic-ba74" d="M 4953 1063 
L 4953 2753 
L 3750 2753 
L 3750 2163 
L 984 2163 
L 984 5125 
L 3750 5125 
L 3750 4531 
L 4953 4531 
L 4953 5466 
L 5422 5466 
L 5422 1063 
L 4953 1063 
z
M 3284 4709 
L 1453 4709 
L 1453 2578 
L 3284 2578 
L 3284 4709 
z
M 4953 4128 
L 3750 4128 
L 3750 3156 
L 4953 3156 
L 4953 4128 
z
M 1734 -391 
L 1734 1509 
L 2203 1509 
L 2203 25 
L 5606 25 
L 5606 -391 
L 1734 -391 
z
" transform="scale(0.015625)"/>
     <path id="MalgunGothic-acfc" d="M 6188 2663 
L 5203 2663 
L 5203 -563 
L 4728 -563 
L 4728 5466 
L 5197 5466 
L 5197 3078 
L 6188 3078 
L 6188 2663 
z
M 3828 4897 
Q 3828 3144 3713 1800 
L 3256 1831 
Q 3294 2163 3326 3077 
Q 3359 3991 3359 4481 
L 800 4481 
L 800 4897 
L 3828 4897 
z
M 4319 666 
Q 2688 575 281 575 
L 238 984 
Q 559 984 1747 1000 
L 1747 3084 
L 2216 3084 
L 2216 1006 
L 4288 1069 
L 4319 666 
z
" transform="scale(0.015625)"/>
     <path id="MalgunGothic-c18d" d="M 5459 3284 
Q 4697 3403 4080 3768 
Q 3463 4134 3206 4519 
Q 2988 4172 2341 3792 
Q 1694 3413 972 3303 
L 697 3681 
Q 1641 3759 2305 4231 
Q 2969 4703 2969 5153 
L 2969 5356 
L 3431 5356 
L 3431 5153 
Q 3431 4706 4098 4220 
Q 4766 3734 5703 3653 
L 5459 3284 
z
M 403 2203 
L 403 2625 
L 2963 2625 
L 2963 3506 
L 3438 3506 
L 3438 2625 
L 5997 2625 
L 5997 2203 
L 403 2203 
z
M 4609 -563 
L 4609 1106 
L 1197 1106 
L 1197 1522 
L 5075 1522 
L 5075 -563 
L 4609 -563 
z
" transform="scale(0.015625)"/>
     <path id="MalgunGothic-b3c4" d="M 403 372 
L 403 788 
L 2963 788 
L 2963 2181 
L 1350 2181 
L 1350 4897 
L 5050 4897 
L 5050 4481 
L 1819 4481 
L 1819 2600 
L 5147 2600 
L 5147 2181 
L 3438 2181 
L 3438 788 
L 5997 788 
L 5997 372 
L 403 372 
z
" transform="scale(0.015625)"/>
     <path id="MalgunGothic-ac00" d="M 5094 2566 
L 5094 -563 
L 4628 -563 
L 4628 5466 
L 5094 5466 
L 5094 2981 
L 6175 2981 
L 6175 2566 
L 5094 2566 
z
M 3609 4928 
Q 3541 2363 897 863 
L 538 1241 
Q 1484 1631 2234 2506 
Q 2984 3381 3109 4513 
L 794 4513 
L 794 4928 
L 3609 4928 
z
" transform="scale(0.015625)"/>
     <path id="MalgunGothic-c9c4" d="M 4909 1178 
L 4909 5466 
L 5375 5466 
L 5375 1178 
L 4909 1178 
z
M 3859 2069 
Q 3422 2334 3003 2771 
Q 2584 3209 2419 3566 
Q 2247 3153 1806 2653 
Q 1366 2153 941 1913 
L 609 2234 
Q 1266 2569 1720 3206 
Q 2175 3844 2175 4494 
L 2175 4716 
L 806 4716 
L 806 5141 
L 3981 5141 
L 3981 4716 
L 2631 4716 
L 2631 4494 
Q 2631 3897 3106 3290 
Q 3581 2684 4172 2406 
L 3859 2069 
z
M 1663 -366 
L 1663 1606 
L 2131 1606 
L 2131 44 
L 5538 44 
L 5538 -366 
L 1663 -366 
z
" transform="scale(0.015625)"/>
     <path id="MalgunGothic-b9e4" d="M 5069 -563 
L 5069 2584 
L 4313 2584 
L 4313 -378 
L 3853 -378 
L 3853 5344 
L 4313 5344 
L 4313 3003 
L 5069 3003 
L 5069 5466 
L 5538 5466 
L 5538 -563 
L 5069 -563 
z
M 763 1197 
L 763 4928 
L 3175 4928 
L 3175 1197 
L 763 1197 
z
M 2713 4519 
L 1222 4519 
L 1222 1606 
L 2713 1606 
L 2713 4519 
z
" transform="scale(0.015625)"/>
     <path id="MalgunGothic-c8fc" d="M 5491 2969 
Q 4775 3069 4104 3464 
Q 3434 3859 3200 4256 
Q 2981 3869 2317 3459 
Q 1653 3050 922 2931 
L 634 3322 
Q 1463 3406 2152 3843 
Q 2841 4281 2950 4825 
L 1025 4825 
L 1025 5241 
L 5375 5241 
L 5375 4825 
L 3444 4825 
Q 3550 4272 4225 3850 
Q 4900 3428 5766 3347 
L 5491 2969 
z
M 3438 1863 
L 3438 -563 
L 2963 -563 
L 2963 1863 
L 403 1863 
L 403 2278 
L 5997 2278 
L 5997 1863 
L 3438 1863 
z
" transform="scale(0.015625)"/>
     <path id="MalgunGothic-ae30" d="M 4884 -563 
L 4884 5466 
L 5350 5466 
L 5350 -563 
L 4884 -563 
z
M 3675 4909 
Q 3653 3656 2956 2611 
Q 2259 1566 959 844 
L 603 1222 
Q 1559 1619 2293 2478 
Q 3028 3338 3175 4494 
L 850 4494 
L 850 4909 
L 3675 4909 
z
" transform="scale(0.015625)"/>
     <path id="MalgunGothic-c5d0" d="M 5081 -563 
L 5081 5466 
L 5550 5466 
L 5550 -563 
L 5081 -563 
z
M 3278 2822 
Q 3244 1931 2903 1448 
Q 2563 966 1959 966 
Q 1325 966 983 1495 
Q 641 2025 641 3016 
Q 641 4006 986 4534 
Q 1331 5063 1959 5063 
Q 2559 5063 2898 4591 
Q 3238 4119 3272 3238 
L 4000 3238 
L 4000 5344 
L 4469 5344 
L 4469 -378 
L 4000 -378 
L 4000 2822 
L 3278 2822 
z
M 1959 4641 
Q 1538 4641 1316 4225 
Q 1094 3809 1094 3016 
Q 1094 2222 1316 1805 
Q 1538 1388 1959 1388 
Q 2378 1388 2600 1806 
Q 2822 2225 2822 3016 
Q 2822 3806 2600 4223 
Q 2378 4641 1959 4641 
z
" transform="scale(0.015625)"/>
     <path id="MalgunGothic-b108" d="M 4897 -563 
L 4897 3116 
L 2956 3116 
L 2956 3534 
L 4897 3534 
L 4897 5466 
L 5363 5466 
L 5363 -563 
L 4897 -563 
z
M 4269 1300 
Q 3969 1222 3333 1190 
Q 2697 1159 903 1159 
L 903 5013 
L 1369 5013 
L 1369 1575 
L 1778 1575 
Q 3659 1575 4219 1691 
L 4269 1300 
z
" transform="scale(0.015625)"/>
     <path id="MalgunGothic-b97c" d="M 5222 3144 
L 1313 3144 
L 1313 4447 
L 4628 4447 
L 4628 4966 
L 1313 4966 
L 1313 5363 
L 5088 5363 
L 5088 4084 
L 1772 4084 
L 1772 3541 
L 5222 3541 
L 5222 3144 
z
M 5997 2241 
L 403 2241 
L 403 2638 
L 5997 2638 
L 5997 2241 
z
M 5234 -500 
L 1294 -500 
L 1294 819 
L 4641 819 
L 4641 1338 
L 1294 1338 
L 1294 1734 
L 5100 1734 
L 5100 447 
L 1753 447 
L 1753 -103 
L 5234 -103 
L 5234 -500 
z
" transform="scale(0.015625)"/>
     <path id="MalgunGothic-acf5" d="M 5178 5281 
Q 5178 3953 5100 3263 
L 4653 3297 
Q 4709 3956 4709 4863 
L 1375 4863 
L 1375 5281 
L 5178 5281 
z
M 403 2406 
L 403 2822 
L 2778 2822 
L 2778 4044 
L 3238 4044 
L 3238 2822 
L 5997 2822 
L 5997 2406 
L 403 2406 
z
M 3188 -466 
Q 2244 -466 1736 -148 
Q 1228 169 1228 691 
Q 1228 1216 1734 1536 
Q 2241 1856 3188 1856 
Q 4128 1856 4634 1536 
Q 5141 1216 5141 691 
Q 5141 169 4633 -148 
Q 4125 -466 3188 -466 
z
M 3188 1459 
Q 2488 1459 2108 1248 
Q 1728 1038 1728 691 
Q 1728 344 2106 136 
Q 2484 -72 3188 -72 
Q 3891 -72 4269 136 
Q 4647 344 4647 691 
Q 4647 1038 4265 1248 
Q 3884 1459 3188 1459 
z
" transform="scale(0.015625)"/>
     <path id="MalgunGothic-ae09" d="M 403 2656 
L 403 3072 
L 4575 3072 
Q 4634 3663 4634 4831 
L 1338 4831 
L 1338 5253 
L 5100 5253 
Q 5100 3781 5031 3072 
L 5997 3072 
L 5997 2656 
L 403 2656 
z
M 1363 -422 
L 1363 2009 
L 1825 2009 
L 1825 1159 
L 4609 1159 
L 4609 2009 
L 5069 2009 
L 5069 -422 
L 1363 -422 
z
M 4609 750 
L 1825 750 
L 1825 -6 
L 4609 -6 
L 4609 750 
z
" transform="scale(0.015625)"/>
    </defs>
    <use xlink:href="#MalgunGothic-72"/>
    <use xlink:href="#MalgunGothic-3d" transform="translate(35.351562 0)"/>
    <use xlink:href="#MalgunGothic-31" transform="translate(105.419922 0)"/>
    <use xlink:href="#MalgunGothic-c774" transform="translate(160.498047 0)"/>
    <use xlink:href="#MalgunGothic-ba74" transform="translate(260.498047 0)"/>
    <use xlink:href="#MalgunGothic-20" transform="translate(360.498047 0)"/>
    <use xlink:href="#MalgunGothic-d798" transform="translate(395.654297 0)"/>
    <use xlink:href="#MalgunGothic-acfc" transform="translate(495.654297 0)"/>
    <use xlink:href="#MalgunGothic-20" transform="translate(595.654297 0)"/>
    <use xlink:href="#MalgunGothic-c18d" transform="translate(630.810547 0)"/>
    <use xlink:href="#MalgunGothic-b3c4" transform="translate(730.810547 0)"/>
    <use xlink:href="#MalgunGothic-ac00" transform="translate(830.810547 0)"/>
    <use xlink:href="#MalgunGothic-20" transform="translate(930.810547 0)"/>
    <use xlink:href="#MalgunGothic-b3d9" transform="translate(965.966797 0)"/>
    <use xlink:href="#MalgunGothic-c0c1" transform="translate(1065.966797 0)"/>
    <use xlink:href="#MalgunGothic-c774" transform="translate(1165.966797 0)"/>
    <use xlink:href="#MalgunGothic-b2e4" transform="translate(1265.966797 0)"/>
    <use xlink:href="#MalgunGothic-2e" transform="translate(1365.966797 0)"/>
    <use xlink:href="#MalgunGothic-20" transform="translate(1387.841797 0)"/>
    <use xlink:href="#MalgunGothic-ac00" transform="translate(1422.998047 0)"/>
    <use xlink:href="#MalgunGothic-c9c4" transform="translate(1522.998047 0)"/>
    <use xlink:href="#MalgunGothic-c774" transform="translate(1622.998047 0)"/>
    <use xlink:href="#MalgunGothic-20" transform="translate(1722.998047 0)"/>
    <use xlink:href="#MalgunGothic-b9e4" transform="translate(1758.154297 0)"/>
    <use xlink:href="#MalgunGothic-20" transform="translate(1858.154297 0)"/>
    <use xlink:href="#MalgunGothic-c8fc" transform="translate(1893.310547 0)"/>
    <use xlink:href="#MalgunGothic-ae30" transform="translate(1993.310547 0)"/>
    <use xlink:href="#MalgunGothic-20" transform="translate(2093.310547 0)"/>
    <use xlink:href="#MalgunGothic-c5d0" transform="translate(2128.466797 0)"/>
    <use xlink:href="#MalgunGothic-b108" transform="translate(2228.466797 0)"/>
    <use xlink:href="#MalgunGothic-c9c0" transform="translate(2328.466797 0)"/>
    <use xlink:href="#MalgunGothic-b97c" transform="translate(2428.466797 0)"/>
    <use xlink:href="#MalgunGothic-20" transform="translate(2528.466797 0)"/>
    <use xlink:href="#MalgunGothic-acf5" transform="translate(2563.623047 0)"/>
    <use xlink:href="#MalgunGothic-ae09" transform="translate(2663.623047 0)"/>
    <use xlink:href="#MalgunGothic-d55c" transform="translate(2763.623047 0)"/>
    <use xlink:href="#MalgunGothic-b2e4" transform="translate(2863.623047 0)"/>
    <use xlink:href="#MalgunGothic-2e" transform="translate(2963.623047 0)"/>
   </g>
  </g>
 </g>
 <defs>
  <clipPath id="p93888fc124">
   <rect x="103.68" y="155.52" width="967.68" height="362.88"/>
  </clipPath>
 </defs>
</svg>
